<?xml version="1.0" encoding="UTF-8"?>
<svg id="Layer_2" data-name="Layer 2" xmlns="http://www.w3.org/2000/svg" viewBox="0 0 68.35 68.35">
  <g id="Layer_1-2" data-name="Layer 1">
    <path d="M58.58,0c5.39,0,9.76,4.38,9.76,9.76v48.82c0,5.39-4.38,9.76-9.76,9.76H9.76c-5.39,0-9.76-4.38-9.76-9.76V9.76C0,4.38,4.38,0,9.76,0h48.82ZM47.84,12.81l-11.93,13.65-10.33-13.65h-14.95l17.86,23.36-16.93,19.36h7.25l13.07-14.94,11.41,14.94h14.58l-18.63-24.62,15.84-18.09h-7.25ZM49.31,51.2h-4.01L19.08,16.92h4.32l25.92,34.28h-.02Z" fill="#fff"/>
  </g>
</svg>